<svg width="24" height="24" viewBox="0 0 24 24" fill="none" xmlns="http://www.w3.org/2000/svg">
<g clip-path="url(#clip0_132_9)">
<path d="M6.38838 10.138C6.77829 8.95836 7.53077 7.932 8.53848 7.20532C9.54619 6.47864 10.7577 6.08877 12.0001 6.09132C13.4084 6.09132 14.6817 6.59132 15.6817 7.40966L18.5917 4.50049C16.8184 2.95465 14.5459 2.00049 12.0001 2.00049C8.05838 2.00049 4.66505 4.24882 3.03338 7.54216L6.38838 10.138ZM15.3667 17.0113C14.4584 17.5972 13.3051 17.9097 12.0001 17.9097C10.7626 17.9122 9.55572 17.5254 8.55025 16.8041C7.54478 16.0828 6.79167 15.0635 6.39755 13.8905L3.03088 16.4463C3.85692 18.1182 5.13527 19.525 6.72074 20.5068C8.3062 21.4886 10.1352 22.0061 12.0001 22.0005C14.4442 22.0005 16.7792 21.1313 18.5284 19.5005L15.3667 17.0113ZM18.5284 19.5005C20.3576 17.7938 21.5451 15.2538 21.5451 12.0005C21.5451 11.4088 21.4542 10.773 21.3184 10.1822H12.0001V14.0463H17.3634C17.0992 15.3455 16.3876 16.3513 15.3667 17.0113L18.5284 19.5005Z" fill="#EDF2F3" fill-opacity="0.8"/>
<path d="M6.3976 13.8903C6.19373 13.2811 6.09016 12.6428 6.09093 12.0003C6.09093 11.3487 6.1951 10.7228 6.38843 10.1378L3.03343 7.54199C2.34708 8.92756 1.99327 10.4541 2.0001 12.0003C2.0001 13.6003 2.37093 15.1087 3.03093 16.4462L6.3976 13.8903Z" fill="#EDF2F3" fill-opacity="0.8"/>
</g>
<defs>
<clipPath id="clip0_132_9">
<rect width="20" height="20" fill="white" transform="translate(2 2)"/>
</clipPath>
</defs>
</svg>
