<svg width="161" height="48" viewBox="0 0 161 48" fill="none" xmlns="http://www.w3.org/2000/svg">
<g clip-path="url(#clip0_274_7718)">
<path fill-rule="evenodd" clip-rule="evenodd" d="M22.9806 3.80591C23.2917 3.6263 23.6446 3.53174 24.0038 3.53174C24.363 3.53174 24.7159 3.6263 25.027 3.80591L29.1198 6.16952C29.586 6.44282 29.9252 6.88942 30.0633 7.41186C30.2014 7.9343 30.1273 8.49017 29.8571 8.95816C29.5869 9.42615 29.1426 9.76827 28.6211 9.90986C28.0995 10.0514 27.5432 9.98101 27.0734 9.71392L26.0502 9.1225V11.7174C26.0502 12.2601 25.8346 12.7806 25.4508 13.1644C25.0671 13.5482 24.5465 13.7638 24.0038 13.7638C23.4611 13.7638 22.9405 13.5482 22.5568 13.1644C22.173 12.7806 21.9574 12.2601 21.9574 11.7174V9.1225L20.9342 9.71392C20.4644 9.98101 19.9081 10.0514 19.3865 9.90986C18.865 9.76827 18.4207 9.42615 18.1505 8.95816C17.8803 8.49017 17.8062 7.9343 17.9443 7.41186C18.0824 6.88942 18.4216 6.44282 18.8878 6.16952L22.9806 3.80591ZM13.9191 11.4002C14.1904 11.8702 14.2639 12.4287 14.1235 12.953C13.983 13.4772 13.6401 13.9242 13.1701 14.1956L12.1469 14.787L14.3938 16.0844C14.6284 16.2178 14.8343 16.3963 14.9997 16.6096C15.1651 16.8229 15.2866 17.0668 15.3573 17.3272C15.428 17.5877 15.4465 17.8595 15.4117 18.1272C15.3769 18.3948 15.2895 18.6529 15.1546 18.8866C15.0197 19.1204 14.8398 19.3251 14.6254 19.489C14.411 19.653 14.1664 19.7729 13.9054 19.8418C13.6445 19.9108 13.3725 19.9275 13.1051 19.891C12.8377 19.8544 12.5802 19.7653 12.3474 19.6288L10.1004 18.3314V19.5122C10.1004 20.0549 9.88483 20.5754 9.50105 20.9592C9.11728 21.343 8.59676 21.5586 8.05402 21.5586C7.51127 21.5586 6.99076 21.343 6.60698 20.9592C6.2232 20.5754 6.0076 20.0549 6.0076 19.5122V14.787C6.00797 14.4281 6.1027 14.0757 6.28229 13.765C6.46188 13.4543 6.72002 13.1963 7.03081 13.0168L11.1236 10.6532C11.5937 10.3819 12.1522 10.3083 12.6765 10.4488C13.2007 10.5892 13.6477 10.9322 13.9191 11.4022V11.4002ZM34.0886 11.4002C34.3599 10.9302 34.8069 10.5872 35.3311 10.4467C35.8554 10.3063 36.4139 10.3798 36.884 10.6512L40.9768 13.0148C41.2879 13.1944 41.5462 13.4527 41.7258 13.7638C41.9054 14.0749 42 14.4278 42 14.787V19.5142C42 20.057 41.7844 20.5775 41.4006 20.9613C41.0168 21.345 40.4963 21.5606 39.9536 21.5606C39.4108 21.5606 38.8903 21.345 38.5065 20.9613C38.1228 20.5775 37.9072 20.057 37.9072 19.5142V18.3314L35.6602 19.6288C35.1904 19.8959 34.6341 19.9663 34.1126 19.8248C33.5911 19.6832 33.1467 19.341 32.8765 18.8731C32.6063 18.4051 32.5322 17.8492 32.6703 17.3268C32.8084 16.8043 33.1476 16.3577 33.6138 16.0844L35.8608 14.787L34.8375 14.1956C34.3675 13.9242 34.0246 13.4772 33.8841 12.953C33.7437 12.4287 33.8172 11.8702 34.0886 11.4002ZM16.915 19.903C17.1864 19.433 17.6334 19.0901 18.1576 18.9496C18.6818 18.8091 19.2404 18.8827 19.7104 19.154L24.0038 21.6323L28.2972 19.154C28.767 18.887 29.3233 18.8165 29.8448 18.9581C30.3663 19.0997 30.8107 19.4418 31.0809 19.9098C31.3511 20.3778 31.4252 20.9337 31.2871 21.4561C31.149 21.9785 30.8098 22.4251 30.3436 22.6984L26.0502 25.1767V30.1351C26.0502 30.6779 25.8346 31.1984 25.4508 31.5822C25.0671 31.9659 24.5465 32.1815 24.0038 32.1815C23.4611 32.1815 22.9405 31.9659 22.5568 31.5822C22.173 31.1984 21.9574 30.6779 21.9574 30.1351V25.1767L17.664 22.6984C17.194 22.4271 16.851 21.9801 16.7106 21.4559C16.5701 20.9316 16.6436 20.3731 16.915 19.903ZM8.05402 26.4311C8.59676 26.4311 9.11728 26.6467 9.50105 27.0305C9.88483 27.4143 10.1004 27.9348 10.1004 28.4775V29.6604L12.3474 28.3629C12.8172 28.0958 13.3735 28.0254 13.895 28.167C14.4166 28.3086 14.8609 28.6507 15.1311 29.1187C15.4013 29.5867 15.4754 30.1425 15.3373 30.665C15.1992 31.1874 14.86 31.634 14.3938 31.9073L12.1469 33.2048L13.1701 33.7962C13.4047 33.9296 13.6106 34.108 13.7759 34.3213C13.9413 34.5346 14.0628 34.7785 14.1335 35.039C14.2042 35.2994 14.2227 35.5713 14.188 35.8389C14.1532 36.1066 14.0658 36.3647 13.9308 36.5984C13.7959 36.8321 13.6161 37.0368 13.4017 37.2008C13.1873 37.3647 12.9426 37.4846 12.6817 37.5536C12.4208 37.6226 12.1488 37.6393 11.8814 37.6027C11.614 37.5661 11.3565 37.4771 11.1236 37.3406L7.03081 34.9769C6.71972 34.7973 6.46139 34.539 6.28178 34.2279C6.10217 33.9168 6.00761 33.564 6.0076 33.2048V28.4775C6.0076 27.9348 6.2232 27.4143 6.60698 27.0305C6.99076 26.6467 7.51127 26.4311 8.05402 26.4311ZM39.9536 26.4311C40.4963 26.4311 41.0168 26.6467 41.4006 27.0305C41.7844 27.4143 42 27.9348 42 28.4775V33.2048C42 33.564 41.9054 33.9168 41.7258 34.2279C41.5462 34.539 41.2879 34.7973 40.9768 34.9769L36.884 37.3406C36.6511 37.4771 36.3936 37.5661 36.1262 37.6027C35.8588 37.6393 35.5868 37.6226 35.3259 37.5536C35.065 37.4846 34.8203 37.3647 34.6059 37.2008C34.3915 37.0368 34.2117 36.8321 34.0768 36.5984C33.9418 36.3647 33.8544 36.1066 33.8196 35.8389C33.7849 35.5713 33.8034 35.2994 33.8741 35.039C33.9448 34.7785 34.0663 34.5346 34.2317 34.3213C34.397 34.108 34.6029 33.9296 34.8375 33.7962L35.8608 33.2048L33.6138 31.9073C33.3792 31.7739 33.1733 31.5955 33.0079 31.3822C32.8426 31.1689 32.721 30.925 32.6503 30.6645C32.5796 30.4041 32.5611 30.1322 32.5959 29.8646C32.6307 29.5969 32.7181 29.3388 32.853 29.1051C32.9879 28.8714 33.1678 28.6667 33.3822 28.5027C33.5966 28.3388 33.8413 28.2189 34.1022 28.1499C34.3631 28.0809 34.6351 28.0642 34.9025 28.1008C35.1699 28.1373 35.4274 28.2264 35.6602 28.3629L37.9072 29.6604V28.4796C37.9072 27.9368 38.1228 27.4163 38.5065 27.0325C38.8903 26.6488 39.4108 26.4332 39.9536 26.4332V26.4311ZM24.0038 34.228C24.5465 34.228 25.0671 34.4436 25.4508 34.8273C25.8346 35.2111 26.0502 35.7316 26.0502 36.2744V38.8692L27.0734 38.2778C27.3063 38.1413 27.5638 38.0522 27.8312 38.0157C28.0986 37.9791 28.3705 37.9958 28.6315 38.0648C28.8924 38.1338 29.1371 38.2537 29.3515 38.4176C29.5658 38.5816 29.7457 38.7863 29.8806 39.02C30.0156 39.2537 30.103 39.5118 30.1377 39.7795C30.1725 40.0471 30.154 40.319 30.0833 40.5794C30.0126 40.8399 29.8911 41.0838 29.7257 41.2971C29.5604 41.5104 29.3545 41.6888 29.1198 41.8222L25.027 44.1858C24.7159 44.3654 24.363 44.46 24.0038 44.46C23.6446 44.46 23.2917 44.3654 22.9806 44.1858L18.8878 41.8222C18.6531 41.6888 18.4472 41.5104 18.2819 41.2971C18.1165 41.0838 17.995 40.8399 17.9243 40.5794C17.8536 40.319 17.8351 40.0471 17.8699 39.7795C17.9046 39.5118 17.992 39.2537 18.127 39.02C18.2619 38.7863 18.4418 38.5816 18.6561 38.4176C18.8705 38.2537 19.1152 38.1338 19.3761 38.0648C19.6371 37.9958 19.909 37.9791 20.1764 38.0157C20.4438 38.0522 20.7014 38.1413 20.9342 38.2778L21.9574 38.8692V36.2744C21.9574 35.7316 22.173 35.2111 22.5568 34.8273C22.9405 34.4436 23.4611 34.228 24.0038 34.228Z" fill="#EDF2F3"/>
</g>
<path d="M82.56 9.78L72 38.5H67.16L56.6 9.78H61.32L69.68 33.38L78.16 9.78H82.56ZM91.8597 38.9C85.8597 38.9 81.4597 34.18 81.4597 27.9C81.4597 21.62 85.8597 16.9 91.8597 16.9C97.8597 16.9 102.26 21.62 102.26 27.9C102.26 34.18 97.8597 38.9 91.8597 38.9ZM91.8597 35.34C95.3397 35.34 98.0997 32.54 98.0997 27.9C98.0997 23.26 95.3397 20.5 91.8597 20.5C88.3797 20.5 85.6597 23.26 85.6597 27.9C85.6597 32.54 88.3797 35.34 91.8597 35.34ZM107.68 38.5H103.12L110.64 27.66L103.6 17.3H108.28L113.52 25.3L118.76 17.3H123.12L116.16 27.78L123.6 38.5H118.96L113.28 30.06L107.68 38.5ZM134.668 38.9C128.548 38.9 124.428 34.46 124.428 27.78C124.428 21.5 128.708 16.9 134.548 16.9C140.868 16.9 145.068 22.02 144.348 28.9H128.548C128.868 33.22 131.028 35.74 134.588 35.74C137.588 35.74 139.668 34.1 140.348 31.34H144.348C143.308 36.06 139.668 38.9 134.668 38.9ZM134.468 19.94C131.228 19.94 129.028 22.26 128.588 26.22H140.068C139.868 22.3 137.748 19.94 134.468 19.94ZM152.684 27.66V38.5H148.644V17.3H152.404V21.78C153.884 18.86 157.084 17.02 160.564 17.02V21.22C156.004 20.98 152.684 22.98 152.684 27.66Z" fill="#EDF2F3"/>
<defs>
<clipPath id="clip0_274_7718">
<rect width="48" height="48" fill="white"/>
</clipPath>
</defs>
</svg>
